<svg width="598" height="184" viewBox="0 0 598 184" fill="none" xmlns="http://www.w3.org/2000/svg">
<path d="M10.112 124V42.208H24.96V124H10.112ZM12.416 124V111.648H74.816V124H12.416ZM18.24 88.48V76.384H72.896V88.48H18.24ZM12.416 54.496V42.208H74.112V54.496H12.416ZM99.542 124V42.208H114.518V124H99.542ZM107.67 92.512V80.16H160.662V92.512H107.67ZM101.846 54.624V42.208H161.75V54.624H101.846ZM196.288 124V111.52H220.736C228.757 111.52 234.816 109.429 238.912 105.248C243.051 101.067 245.12 95.1573 245.12 87.52V78.496C245.12 70.8587 243.051 64.9707 238.912 60.832C234.816 56.6933 228.757 54.624 220.736 54.624H196.096V42.208H221.248C234.176 42.208 243.968 45.344 250.624 51.616C257.28 57.8453 260.608 66.784 260.608 78.432V87.584C260.608 99.2747 257.28 108.277 250.624 114.592C243.968 120.864 234.176 124 221.248 124H196.288ZM185.472 124V42.208H200.512V124H185.472Z" fill="url(#paint0_linear_14_261)"/>
<path d="M319.596 124L320.108 109.024L319.66 107.232V87.456L319.724 84.064C319.724 79.1573 318.465 75.5307 315.948 73.184C313.473 70.8373 309.484 69.664 303.98 69.664C299.543 69.664 295.447 70.304 291.692 71.584C287.98 72.8213 284.631 74.272 281.644 75.936L282.668 66.144C284.375 65.1627 286.359 64.2027 288.62 63.264C290.881 62.3253 293.463 61.5573 296.364 60.96C299.265 60.32 302.444 60 305.9 60C310.508 60 314.412 60.5547 317.612 61.664C320.855 62.7733 323.457 64.3733 325.42 66.464C327.425 68.5547 328.876 71.072 329.772 74.016C330.711 76.96 331.18 80.2667 331.18 83.936V124H319.596ZM298.284 125.408C292.097 125.408 287.361 123.893 284.076 120.864C280.791 117.792 279.148 113.461 279.148 107.872V105.952C279.148 100.107 280.961 95.7547 284.588 92.896C288.215 89.9947 293.953 87.9893 301.804 86.88L321.068 84.128L321.708 92.576L303.212 95.2C298.689 95.84 295.468 96.9493 293.548 98.528C291.628 100.064 290.668 102.325 290.668 105.312V106.272C290.668 109.301 291.607 111.648 293.484 113.312C295.361 114.933 298.22 115.744 302.06 115.744C305.473 115.744 308.396 115.168 310.828 114.016C313.303 112.821 315.308 111.243 316.844 109.28C318.38 107.317 319.425 105.141 319.98 102.752L321.644 110.56H319.532C318.849 113.205 317.697 115.659 316.076 117.92C314.497 120.181 312.257 121.995 309.356 123.36C306.497 124.725 302.807 125.408 298.284 125.408ZM395.762 124V85.28C395.762 82.08 395.314 79.328 394.418 77.024C393.565 74.72 392.135 72.928 390.13 71.648C388.167 70.368 385.501 69.728 382.13 69.728C378.973 69.728 376.242 70.304 373.938 71.456C371.634 72.608 369.757 74.1867 368.306 76.192C366.898 78.1547 365.895 80.3947 365.298 82.912L363.314 74.784H365.81C366.535 72.0533 367.73 69.5787 369.394 67.36C371.058 65.1413 373.298 63.3707 376.114 62.048C378.973 60.7253 382.471 60.064 386.61 60.064C391.517 60.064 395.485 61.0027 398.514 62.88C401.543 64.7147 403.762 67.4027 405.17 70.944C406.621 74.4853 407.346 78.816 407.346 83.936V124H395.762ZM354.162 124V61.472H365.746L365.234 76.256L365.746 76.96V124H354.162ZM455.168 125.472C445.995 125.472 439.189 123.019 434.752 118.112C430.315 113.205 428.096 106.272 428.096 97.312V88.032C428.096 79.0293 430.315 72.096 434.752 67.232C439.232 62.368 446.037 59.936 455.168 59.936C457.771 59.936 460.139 60.192 462.272 60.704C464.448 61.1733 466.411 61.792 468.16 62.56C469.909 63.328 471.381 64.1173 472.576 64.928L473.6 74.912C471.552 73.4187 469.163 72.16 466.432 71.136C463.744 70.112 460.587 69.6 456.96 69.6C451.115 69.6 446.784 71.2 443.968 74.4C441.152 77.6 439.744 82.2293 439.744 88.288V97.056C439.744 102.987 441.152 107.573 443.968 110.816C446.784 114.016 451.115 115.616 456.96 115.616C460.672 115.616 463.915 115.104 466.688 114.08C469.504 113.013 472 111.755 474.176 110.304L473.152 120.416C471.232 121.653 468.736 122.805 465.664 123.872C462.635 124.939 459.136 125.472 455.168 125.472ZM519.777 125.472C510.006 125.472 502.668 123.125 497.761 118.432C492.854 113.696 490.401 106.912 490.401 98.08V87.456C490.401 78.624 492.684 71.8187 497.249 67.04C501.814 62.2187 508.47 59.808 517.217 59.808C523.148 59.808 528.097 60.896 532.065 63.072C536.033 65.248 538.998 68.3413 540.961 72.352C542.966 76.32 543.969 81.056 543.969 86.56V88.928C543.969 90.336 543.905 91.7653 543.777 93.216C543.649 94.624 543.5 96.0107 543.329 97.376H532.641C532.726 95.2 532.769 93.1733 532.769 91.296C532.812 89.376 532.833 87.6267 532.833 86.048C532.833 82.464 532.257 79.4347 531.105 76.96C529.953 74.4427 528.225 72.5227 525.921 71.2C523.617 69.8773 520.716 69.216 517.217 69.216C512.054 69.216 508.193 70.7093 505.633 73.696C503.116 76.64 501.857 80.8427 501.857 86.304V92.256L501.921 93.664V99.36C501.921 101.835 502.284 104.075 503.009 106.08C503.777 108.043 504.95 109.749 506.529 111.2C508.108 112.651 510.156 113.76 512.673 114.528C515.19 115.296 518.198 115.68 521.697 115.68C525.75 115.68 529.526 115.168 533.025 114.144C536.524 113.077 539.83 111.648 542.945 109.856L541.857 119.84C539.084 121.547 535.841 122.912 532.129 123.936C528.417 124.96 524.3 125.472 519.777 125.472ZM496.545 97.376V88.608H540.897V97.376H496.545Z" fill="black"/>
<path d="M355.66 161.46C354.073 161.46 352.62 161.32 351.3 161.04C349.993 160.773 348.847 160.44 347.86 160.04C346.887 159.64 346.073 159.26 345.42 158.9L345.16 156.5C346.4 157.247 347.9 157.913 349.66 158.5C351.433 159.087 353.42 159.38 355.62 159.38C358.273 159.38 360.26 158.953 361.58 158.1C362.913 157.247 363.58 155.98 363.58 154.3V154.1C363.58 152.94 363.327 152.013 362.82 151.32C362.327 150.627 361.473 150.08 360.26 149.68C359.047 149.28 357.367 148.967 355.22 148.74C352.687 148.447 350.7 148.02 349.26 147.46C347.82 146.9 346.8 146.153 346.2 145.22C345.613 144.287 345.32 143.12 345.32 141.72V141.64C345.32 139.52 346.1 137.887 347.66 136.74C349.22 135.58 351.653 135 354.96 135C357.28 135 359.253 135.247 360.88 135.74C362.52 136.22 363.807 136.733 364.74 137.28L365 139.46C363.853 138.793 362.46 138.22 360.82 137.74C359.193 137.26 357.307 137.02 355.16 137.02C353.387 137.02 351.953 137.207 350.86 137.58C349.78 137.94 348.987 138.467 348.48 139.16C347.987 139.853 347.74 140.687 347.74 141.66V141.7C347.74 142.687 347.967 143.513 348.42 144.18C348.873 144.833 349.693 145.373 350.88 145.8C352.08 146.213 353.807 146.56 356.06 146.84C358.54 147.133 360.507 147.547 361.96 148.08C363.413 148.6 364.453 149.333 365.08 150.28C365.707 151.227 366.02 152.493 366.02 154.08V154.3C366.02 156.673 365.147 158.46 363.4 159.66C361.667 160.86 359.087 161.46 355.66 161.46ZM391.21 161V135.94H393.59V161H391.21ZM381.25 137.4V135.44H403.55V137.4H381.25ZM431.675 161.48C427.982 161.48 425.242 160.54 423.455 158.66C421.682 156.78 420.795 154.06 420.795 150.5V135.44H423.155V150.5C423.155 153.38 423.842 155.593 425.215 157.14C426.589 158.687 428.742 159.46 431.675 159.46C434.622 159.46 436.775 158.687 438.135 157.14C439.509 155.593 440.195 153.38 440.195 150.5V135.44H442.575V150.5C442.575 154.06 441.682 156.78 439.895 158.66C438.122 160.54 435.382 161.48 431.675 161.48ZM463.641 161V159.02H472.121C475.254 159.02 477.641 158.207 479.281 156.58C480.921 154.953 481.741 152.633 481.741 149.62V146.8C481.741 143.773 480.921 141.453 479.281 139.84C477.641 138.213 475.254 137.4 472.121 137.4H463.541V135.44H472.181C476.074 135.44 479.041 136.42 481.081 138.38C483.134 140.34 484.161 143.14 484.161 146.78V149.62C484.161 153.273 483.134 156.087 481.081 158.06C479.041 160.02 476.074 161 472.181 161H463.641ZM461.981 161V135.44H464.341V161H461.981ZM504.838 161H502.478V135.44H504.838V161ZM535.234 161.48C531.341 161.48 528.354 160.46 526.274 158.42C524.208 156.38 523.174 153.48 523.174 149.72V146.7C523.174 142.94 524.208 140.047 526.274 138.02C528.354 135.98 531.341 134.96 535.234 134.96C539.141 134.96 542.128 135.98 544.194 138.02C546.274 140.047 547.314 142.94 547.314 146.7V149.72C547.314 153.48 546.274 156.38 544.194 158.42C542.128 160.46 539.141 161.48 535.234 161.48ZM535.234 159.48C538.394 159.48 540.788 158.633 542.414 156.94C544.054 155.247 544.874 152.853 544.874 149.76V146.66C544.874 143.567 544.054 141.18 542.414 139.5C540.788 137.807 538.394 136.96 535.234 136.96C532.088 136.96 529.694 137.807 528.054 139.5C526.428 141.18 525.614 143.567 525.614 146.66V149.76C525.614 152.853 526.428 155.247 528.054 156.94C529.694 158.633 532.088 159.48 535.234 159.48Z" fill="url(#paint1_radial_14_261)"/>
<defs>
<linearGradient id="paint0_linear_14_261" x1="29.5556" y1="184" x2="294" y2="184" gradientUnits="userSpaceOnUse">
<stop stop-color="#A61E4D"/>
<stop offset="0.9999" stop-color="#E2400D"/>
<stop offset="1" stop-color="#F84D17" stop-opacity="0"/>
</linearGradient>
<radialGradient id="paint1_radial_14_261" cx="0" cy="0" r="1" gradientUnits="userSpaceOnUse" gradientTransform="translate(543.878 162.6) rotate(-171.066) scale(203.344 1359.47)">
<stop stop-color="#A61E4D"/>
<stop offset="1"/>
</radialGradient>
</defs>
</svg>
